HIERARCHY
ROOT HipCenter
{
    OFFSET 0.0 0.0 -0.0
    CHANNELS 6 Xposition Yposition Zposition Zrotation Xrotation Yrotation
    JOINT Spine
    {
        OFFSET 0.0 11.317672729492188 0.0
        CHANNELS 3 Zrotation Xrotation Yrotation
        JOINT ShoulderCenter
        {
            OFFSET 0.0 32.617279052734375 0.0
            CHANNELS 3 Zrotation Xrotation Yrotation
            JOINT LeftShoulder
            {
                OFFSET 18.428611755371094 0.0 0.0
                CHANNELS 3 Zrotation Xrotation Yrotation
                JOINT LeftElbow
                {
                    OFFSET 32.48215866088867 0.0 0.0
                    CHANNELS 3 Zrotation Xrotation Yrotation
                    JOINT LeftWrist
                    {
                        OFFSET 30.971668243408203 0.0 0.0
                        CHANNELS 3 Zrotation Xrotation Yrotation
                        JOINT LeftHand
                        {
                            OFFSET 3.3905882835388184 0.0 0.0
                            CHANNELS 3 Zrotation Xrotation Yrotation
                            End Site
                            {
                                OFFSET 1.356235384941101 0.0 0.0
                            }
                        }
                    }
                }
            }
            JOINT RightShoulder
            {
                OFFSET -18.428611755371094 0.0 0.0
                CHANNELS 3 Zrotation Xrotation Yrotation
                JOINT RightElbow
                {
                    OFFSET -32.48215866088867 0.0 0.0
                    CHANNELS 3 Zrotation Xrotation Yrotation
                    JOINT RightWrist
                    {
                        OFFSET -30.971668243408203 0.0 0.0
                        CHANNELS 3 Zrotation Xrotation Yrotation
                        JOINT RightHand
                        {
                            OFFSET -3.3905882835388184 0.0 0.0
                            CHANNELS 3 Zrotation Xrotation Yrotation
                            End Site
                            {
                                OFFSET -1.356235384941101 0.0 0.0
                            }
                        }
                    }
                }
            }
            End Site
            {
                OFFSET 0.0 13.046911239624023 0.0
            }
        }
    }
    JOINT LeftHip
    {
        OFFSET 14.510774612426758 0.0 0.0
        CHANNELS 3 Zrotation Xrotation Yrotation
        JOINT LeftKnee
        {
            OFFSET 0.0 -42.42488098144531 0.0
            CHANNELS 3 Zrotation Xrotation Yrotation
            JOINT LeftAnkle
            {
                OFFSET 0.0 -46.09623718261719 0.0
                CHANNELS 3 Zrotation Xrotation Yrotation
                JOINT LeftFoot
                {
                    OFFSET 0.0 -13.58619499206543 0.0
                    CHANNELS 3 Zrotation Xrotation Yrotation
                    End Site
                    {
                        OFFSET 0.0 0.0 5.434478282928467
                    }
                }
            }
        }
    }
    JOINT RightHip
    {
        OFFSET -14.510774612426758 0.0 0.0
        CHANNELS 3 Zrotation Xrotation Yrotation
        JOINT RightKnee
        {
            OFFSET 0.0 -42.42488098144531 0.0
            CHANNELS 3 Zrotation Xrotation Yrotation
            JOINT RightAnkle
            {
                OFFSET 0.0 -46.09623718261719 0.0
                CHANNELS 3 Zrotation Xrotation Yrotation
                JOINT RightFoot
                {
                    OFFSET 0.0 -13.58619499206543 0.0
                    CHANNELS 3 Zrotation Xrotation Yrotation
                    End Site
                    {
                        OFFSET 0.0 0.0 5.434478282928467
                    }
                }
            }
        }
    }
}
MOTION
Frames: 4
Frame Time: 0.03333333333333333
-42.69999694824219 12.899999618530273 22.200000762939453 0.5070405775510094 2.561156183438081e-08 -85.23373215873347 -4.705819551534913 -5.40943610059202 -0.47073936402207284 -2.7306829968135623e-08 1.4744243485191397e-07 4.067085163037364 133.0468872112283 55.11874418612333 -66.96320936736643 6.643295722314824e-06 2.0160237269268045e-06 36.94877825350851 179.99998951006165 -78.33861541994835 -148.0449881641802 9.541664044390549e-15 -6.361109362927033e-15 3.1805546814635168e-15 -141.51192516429893 72.38495047016144 91.81408955633813 8.255365528761857e-07 6.088206179255228e-07 -38.13685628525864 1.714463134304702e-05 -84.03944383256994 -31.444838992017047 6.3611093629270335e-15 -3.531125038440127e-31 -6.3611093629270335e-15 -1.7728213874878853 -9.767168458408245 -13.48465567117627 -2.675596832942828 27.621925430500408 -25.697681570964185 56.78896696889956 -41.81627523860436 99.60352326712741 6.3611093629270335e-15 3.1805546814635168e-15 -1.5902773407317584e-15 2.718393536727443 -3.7609266595689554 19.40519498754971 0.8578978580713809 28.569668913659775 25.785026111215483 -55.26866504516363 -38.98570695675543 -96.16572460240457 -6.3611093629270335e-15 3.531125038440127e-31 -6.3611093629270335e-15
-42.099998474121094 16.30000114440918 22.30000114440918 2.533559290457008 -4.127856077285767e-08 -85.44785410882022 -5.187648441383312 -7.059924872760229 -0.8524096607826124 6.353983296619162e-07 1.328042868826516e-07 4.5972175056267695 127.13219257883749 53.755094247944115 -54.16751500087559 -3.0968012240992667e-06 -4.57972611407886e-06 26.669761379543772 -179.99998012791949 -80.77725223991081 -151.17686706225808 -1.5902773407317592e-15 -6.361109362927035e-15 -3.1805546814635176e-15 -148.8503725245207 74.88123774353089 96.72689515509653 -8.007943604885317e-08 1.657063643884613e-06 -35.32569069175638 -2.4160189545241476e-06 -85.0718125923122 -25.08062148943504 0.0 0.0 -6.3611093629270335e-15 -1.377128493731355 -11.968420314625336 -9.009254976242964 -0.4540091968861907 26.280597153082375 -26.1119793378756 46.341292928152214 -38.286362669379905 86.85722850325529 -6.361109362927033e-15 -2.2069531490250793e-31 3.975693351829395e-15 1.7645424981402118 -7.35219495405514 14.281396855342214 -1.6934316372102771 28.380748783047277 31.01657944066315 -53.619607692278066 -32.78014276876494 -103.24785977600254 -3.1805546814635168e-15 6.3611093629270335e-15 2.3854160110976376e-15
-40.900001525878906 18.700000762939453 22.0 5.057248274535515 1.0100358994175387 -86.27353235413803 -5.27549281255357 -8.585716813543065 -1.8218379161020346 1.0259167424720317e-07 -1.0661261564277018e-07 5.545965628807302 115.9329106354338 44.200513040067165 -38.521753111885594 -3.6075304163042345e-07 -4.80442037487732e-06 19.830066130103578 179.9999901671015 -71.91488841959236 -148.11149001018865 6.361109362927033e-15 -7.951386703658788e-16 5.5659706925611536e-15 -141.91307302021804 75.61217142029241 88.52261150066889 -5.906587323499197e-07 1.8907412536440561e-06 -33.673697625421646 -2.554993809511313e-05 -80.8180219579108 -26.106254904262325 -1.7655625192200634e-31 -6.361109362927032e-15 -3.180554681463516e-15 -0.3050684121831632 -13.630177895919003 -8.346070592143743 0.8028750700400267 23.47675477767831 -22.19775320542836 33.85302810734306 -37.197228683320425 65.9063420887412 -3.180554681463516e-15 3.1805546814635168e-15 -6.361109362927033e-15 2.265768843223641 -12.908923892688467 8.172843228017229 -5.7815277315840845 31.356524000665917 42.79613273937019 -48.549307561953455 -26.375933404389936 -104.72537846099566 3.180554681463516e-15 3.180554681463516e-15 1.590277340731758e-15
-40.400001525878906 19.69999885559082 21.399999618530273 4.55375555315841 2.0209262679963698 -87.93735393952889 -5.236116633129383 -8.041883043769705 -2.40143726589101 -1.1283874786326736e-06 2.809836497623803e-07 5.9682490634557945 118.67039456585432 43.30481220361911 -39.38367861609083 1.7006794925781443e-06 2.6423319572576758e-06 20.69021123962508 -179.99999028810348 -81.33347291749031 -149.22679679661374 7.951386703658792e-15 1.5902773407317588e-15 3.1805546814635168e-15 -152.49246528944656 74.40315687263978 98.33671211040082 -3.771586601910212e-06 5.0282967428988265e-06 -34.92855972677608 -2.0769372343969805e-05 -83.24318916425182 -25.946475771880987 0.0 6.3611093629270335e-15 0.0 0.9363352863178963 -11.140294753128007 -10.26396412542395 -0.021447366908481206 20.226770519315856 -16.89651151505036 24.377682068202464 -38.448841090834506 50.238587067658294 -1.4345195468663017e-31 1.5902773407317582e-15 1.0336802714756429e-14 4.032686456491607 -14.607485903900898 4.561874605582879 -9.801219759632424 33.67841851450275 53.51798283643331 -50.1441422088489 -23.432875003446394 -114.97319776040197 1.5902773407317582e-15 3.180554681463516e-15 -3.975693351829395e-15
